<svg xmlns="http://www.w3.org/2000/svg" version="1.1" xmlns:xlink="http://www.w3.org/1999/xlink" xmlns:svgjs="http://svgjs.dev/svgjs" width="100%" height="100%" viewBox="0 0 1000 600"><rect width="1000" height="600" x="0" y="0" fill="#cc313d"/><g><circle r="166.66666666666666" cx="688.8464762369791" cy="711.0687878439824" fill="#f7c5cc" transform="matrix(0.23938106902504813,0,0,0.23938106902504813,0,129.78356752284162)"/><path d="M750.166627542927 668.447993495139L749.1221401308744 668.447993495139Q727.5940940269015 654.260372814758 701.6850035001523 654.260372814758Q675.7759129734031 654.260372814758 661.1530892046667 670.1307787701127Q646.5302654359303 686.0011847254675 646.5302654359303 711.0688826147299Q646.5302654359303 736.1365805039923 661.1530892046667 752.006986459347Q675.7759129734031 767.9064059539254 701.6850035001523 767.9064059539254Q727.5940940269015 767.9064059539254 749.1221401308744 753.6897717343206L749.1221401308744 753.6897717343206L750.166627542927 753.6897717343206L750.166627542927 772.4905451512674Q727.5940940269015 786.0688815079512 700.6405160880997 786.0688815079512L700.6405160880997 786.0688815079512Q668.6966094028244 786.0688815079512 648.0969965540093 765.7013769729255Q627.5263972444178 745.3338724378998 627.5263972444178 711.0688826147299Q627.5263972444178 676.8038927915599 648.0969965540093 656.4363882565342Q668.6966094028244 636.0688837215085 700.6405160880997 636.0688837215085L700.6405160880997 636.0688837215085Q727.5940940269015 636.0688837215085 750.166627542927 649.6472200781924L750.166627542927 649.6472200781924L750.166627542927 668.447993495139Z " fill="#cc313d" transform="matrix(0.23938106902504813,0,0,0.23938106902504813,0,129.78356752284162)"/><path d="M1057.8498839827826 671.9360004720808L1056.8363705186132 671.9360004720808Q1035.946731896008 658.1691092504448 1010.8059673542475 658.1691092504448Q985.6652028124869 658.1691092504448 971.4760143141136 673.568883275465Q957.2868258157404 688.9686573004852 957.2868258157404 713.2929804405536Q957.2868258157404 737.6173035806222 971.4760143141136 753.0170776056424Q985.6652028124869 768.445004782445 1010.8059673542475 768.445004782445Q1035.946731896008 768.445004782445 1056.8363705186132 754.6499604090266L1056.8363705186132 754.6499604090266L1057.8498839827826 754.6499604090266L1057.8498839827826 772.893202764078Q1035.946731896008 786.0688777982817 1009.7924538900779 786.0688777982817L1009.7924538900779 786.0688777982817Q978.7958337775601 786.0688777982817 958.8070960119946 766.3053652469761Q938.8465113982115 746.5418526956704 938.8465113982115 713.2929804405536Q938.8465113982115 680.0441081854369 958.8070960119946 660.2805956341313Q978.7958337775601 640.5170830828257 1009.7924538900779 640.5170830828257L1009.7924538900779 640.5170830828257Q1035.946731896008 640.5170830828257 1057.8498839827826 653.6927581170294L1057.8498839827826 653.6927581170294L1057.8498839827826 671.9360004720808ZM1078.7113694536054 732.3526641972971Q1078.7113694536054 708.2254131197061 1092.9005579519785 693.4450084339006Q1107.0897464503519 678.6364505963126 1130.5131687333808 678.6364505963126Q1153.908437864627 678.6364505963126 1168.2102389701304 693.4450084339006Q1182.5120400756336 708.2254131197061 1182.5120400756336 732.3526641972971Q1182.5120400756336 756.4799152748882 1168.2102389701304 771.2603199606937Q1153.908437864627 786.0688777982817 1130.5131687333808 786.0688777982817Q1107.0897464503519 786.0688777982817 1092.9005579519785 771.2603199606937Q1078.7113694536054 756.4799152748882 1078.7113694536054 732.3526641972971ZM1107.2023590574818 760.0272123994815Q1117.224881092047 769.2332930323547 1130.5976281887283 769.2332930323547Q1143.998528437192 769.2332930323547 1154.021050471757 760.0272123994815Q1164.0435725063223 750.7929786148259 1164.0435725063223 732.2400515901671Q1164.0435725063223 713.715277717291 1154.021050471757 704.5936565397652Q1143.998528437192 695.4720353622396 1130.5976281887283 695.4720353622396Q1117.224881092047 695.4720353622396 1107.2023590574818 704.5936565397652Q1097.151683871134 713.715277717291 1097.151683871134 732.2400515901671Q1097.151683871134 750.7929786148259 1107.2023590574818 760.0272123994815ZM1246.3633883183134 762.138698783168L1278.3735218950007 680.6634775246516L1298.4467191159138 680.6634775246516L1255.0627122191017 784.0418508699427L1236.8194698640505 784.0418508699427L1193.4354629672384 680.6634775246516L1213.5086601881515 680.6634775246516L1245.5469469166212 762.138698783168L1246.3633883183134 762.138698783168ZM1334.9332038260163 784.0418508699427L1316.4928894084876 784.0418508699427L1316.4928894084876 680.6634775246516L1334.9332038260163 680.6634775246516L1334.9332038260163 784.0418508699427ZM1315.873520069273 638.9123534312239L1335.7496452277085 638.9123534312239L1335.7496452277085 658.760325437877L1315.873520069273 658.760325437877L1315.873520069273 638.9123534312239ZM1376.1775711873593 693.2197832196407Q1390.8735164178174 678.6364505963126 1410.5525695137756 678.6364505963126Q1430.2034694579513 678.6364505963126 1444.589730018802 693.642080496378L1444.589730018802 693.642080496378L1445.2090993580166 693.642080496378L1445.2090993580166 636.0688851011927L1463.6494137755453 636.0688851011927L1463.6494137755453 784.0418508699427L1447.4331983488332 784.0418508699427L1445.2090993580166 771.0632478982162L1444.589730018802 771.0632478982162Q1430.2034694579513 786.0688777982817 1410.5525695137756 786.0688777982817Q1390.8735164178174 786.0688777982817 1376.1775711873593 771.4855451749536Q1361.4816259569013 756.8740593998431 1361.4816259569013 732.3526641972971Q1361.4816259569013 707.8312689947512 1376.1775711873593 693.2197832196407ZM1413.1708126295468 768.8391489073998L1413.1708126295468 768.8391489073998Q1431.4140549845981 768.8391489073998 1445.2090993580166 753.6364469448571L1445.2090993580166 753.6364469448571L1445.2090993580166 711.0688814497372Q1431.4140549845981 695.8661794871945 1413.1708126295468 695.8661794871945L1413.1708126295468 695.8661794871945Q1398.1651827294813 695.8661794871945 1389.0435615519557 705.3819447896749Q1379.92194037443 714.9258632439379 1379.92194037443 732.3526641972971Q1379.92194037443 749.7794651506564 1389.0435615519557 759.3233836049193Q1398.1651827294813 768.8391489073998 1413.1708126295468 768.8391489073998ZM1547.3768871766608 718.979917100616L1547.3768871766608 735.3932045898057L1494.6741870398457 735.3932045898057L1494.6741870398457 718.979917100616L1547.3768871766608 718.979917100616ZM1640.817197942734 642.5441100111647L1640.817197942734 766.8121219790609L1668.576205600266 766.8121219790609L1668.576205600266 784.0418508699427L1590.7327409216903 784.0418508699427L1590.7327409216903 766.8121219790609L1622.3768835252051 766.8121219790609L1622.3768835252051 664.250190035462L1621.5604421235132 664.250190035462L1592.1685516625969 678.83352265879L1592.1685516625969 659.1826227146142L1623.7845411143296 642.5441100111647L1640.817197942734 642.5441100111647ZM1745.8003009396268 734.1826190631588L1745.8003009396268 734.1826190631588Q1724.938815468804 734.1826190631588 1712.1572845595551 721.2040160914324Q1699.4039068020886 708.2254131197061 1699.4039068020886 687.5609997113609Q1699.4039068020886 666.8684331512331 1713.0863385683772 653.6927581170294Q1726.7687703346658 640.5170830828257 1749.4602106713498 640.5170830828257L1749.4602106713498 640.5170830828257Q1805.006379138196 640.5170830828257 1805.006379138196 713.0959083780763L1805.006379138196 713.0959083780763Q1805.006379138196 739.6443305089612 1792.4219202914248 761.3504105332584L1792.4219202914248 761.3504105332584Q1785.9466953814526 772.4990586391231 1773.981605873896 779.2839682187024Q1762.016516366339 786.0688777982817 1743.8858866184175 786.0688777982817Q1725.7552568704962 786.0688777982817 1708.103230702877 776.130815219064L1708.103230702877 776.130815219064L1708.103230702877 757.4934287390578L1709.1167441670466 757.4934287390578Q1725.7552568704962 768.2197795681851 1744.7867874754572 768.2197795681851L1744.7867874754572 768.2197795681851Q1757.1741742597512 768.2197795681851 1765.8734981605396 762.9551401848602Q1774.6009752131106 757.6905008015351 1778.8521011322662 748.9630237489642L1778.8521011322662 748.9630237489642Q1786.5660647206673 733.1691055989892 1787.3543529705769 716.5305928955396L1787.3543529705769 716.5305928955396L1786.960208845622 716.5305928955396Q1773.1651644722037 734.1826190631588 1745.8003009396268 734.1826190631588ZM1749.2631386088726 657.7468119737075L1749.2631386088726 657.7468119737075Q1735.271022172977 657.7468119737075 1726.543545120406 666.2772169638009Q1717.8442212196176 674.7794688021119 1717.8442212196176 687.7580717738382Q1717.8442212196176 700.7366747455645 1725.5300316562361 709.0418545213981Q1733.2439952446375 717.3470342972317 1748.0525530822256 717.3470342972317L1748.0525530822256 717.3470342972317Q1774.4039031506331 717.3470342972317 1786.3408395064075 695.0497380855023L1786.3408395064075 695.0497380855023Q1780.8791280606051 657.7468119737075 1749.2631386088726 657.7468119737075ZM1999.9951083836988 671.9360004720808L1998.9815949195292 671.9360004720808Q1978.1201094487067 658.1691092504448 1952.979344906946 658.1691092504448Q1927.8385803651854 658.1691092504448 1913.649391866812 673.568883275465Q1899.460203368439 688.9686573004852 1899.460203368439 713.2929804405536Q1899.460203368439 737.6173035806222 1913.649391866812 753.0170776056424Q1927.8385803651854 768.445004782445 1952.979344906946 768.445004782445Q1978.1201094487067 768.445004782445 1998.9815949195292 754.6499604090266L1998.9815949195292 754.6499604090266L1999.9951083836988 754.6499604090266L1999.9951083836988 772.893202764078Q1978.1201094487067 786.0688777982817 1951.9658314427763 786.0688777982817L1951.9658314427763 786.0688777982817Q1920.9410581784762 786.0688777982817 1900.9804735646933 766.3053652469761Q1881.01988895091 746.5418526956704 1881.01988895091 713.2929804405536Q1881.01988895091 680.0441081854369 1900.9804735646933 660.2805956341313Q1920.9410581784762 640.5170830828257 1951.9658314427763 640.5170830828257L1951.9658314427763 640.5170830828257Q1978.1201094487067 640.5170830828257 1999.9951083836988 653.6927581170294L1999.9951083836988 653.6927581170294L1999.9951083836988 671.9360004720808ZM2028.9928547196598 702.960773736381L2028.9928547196598 686.3504141847139Q2046.6167277354964 678.6364505963126 2066.8025375635398 678.6364505963126Q2086.9601942398003 678.6364505963126 2097.7146982207105 690.4044680413921Q2108.4410490498376 702.144332334689 2108.4410490498376 718.5576198238787L2108.4410490498376 718.5576198238787L2108.4410490498376 784.0418508699427L2092.224833623125 784.0418508699427L2090.000734632308 771.0632478982162L2089.381365293094 771.0632478982162Q2074.798032669766 786.0688777982817 2051.881367118822 786.0688777982817L2051.881367118822 786.0688777982817Q2038.1144758971857 786.0688777982817 2028.486097987575 777.7636980224481Q2018.8577200779648 769.4585182466145 2018.8577200779648 755.0441045339813Q2018.8577200779648 740.6578439731308 2030.7101969783919 731.7332948580824Q2042.5626738788185 722.8368988948166 2065.479339429763 722.8368988948166L2065.479339429763 722.8368988948166L2090.000734632308 722.8368988948166L2090.000734632308 721.2040160914324Q2090.000734632308 707.8312689947512 2083.4128971152068 701.9472602722116Q2076.8250595981053 696.0632515496718 2060.608844171393 696.0632515496718Q2044.3926287446805 696.0632515496718 2030.203440246307 702.960773736381L2030.203440246307 702.960773736381L2028.9928547196598 702.960773736381ZM2090.000734632308 754.6499604090266L2090.000734632308 754.6499604090266L2090.000734632308 737.6173035806222L2067.9005104830567 737.6173035806222Q2037.2980344954933 737.6173035806222 2037.2980344954933 753.749059551987Q2037.2980344954933 769.8526623715694 2058.7788893055304 769.8526623715694L2058.7788893055304 769.8526623715694Q2067.703438420579 769.8526623715694 2076.0086181964125 765.4889238452839Q2084.313797972246 761.1251853189984 2090.000734632308 754.6499604090266ZM2177.1628925508876 695.4720353622396Q2164.1842895791606 695.4720353622396 2158.0187493387966 699.4134766117877Q2151.8250559466496 703.3549178613358 2151.8250559466496 709.3515391910056Q2151.8250559466496 715.3200073688927 2158.103208794144 718.5576198238787Q2164.3813616416383 721.8233854306471 2173.4185233638163 723.7377997518562Q2182.4275319342123 725.6522140730652 2191.352081049261 728.4956824030965Q2200.2766301643087 731.3391507331277 2206.554783011803 738.2366729198369Q2212.8329358592982 745.1341951065461 2212.8329358592982 757.0711314623204Q2212.8329358592982 769.0362209698773 2202.613341762255 777.5666259599707Q2192.3655945134296 786.0688777982817 2172.20793783717 786.0688777982817Q2152.0221280091264 786.0688777982817 2135.4117684574594 776.947256620756L2135.4117684574594 776.947256620756L2135.4117684574594 759.3233836049193L2136.425281921629 759.3233836049193Q2152.838569410819 769.0362209698773 2172.489469354994 769.0362209698773L2172.489469354994 769.0362209698773Q2195.011990780984 769.0362209698773 2195.011990780984 754.6499604090266L2195.011990780984 754.6499604090266Q2195.011990780984 749.9765372131338 2188.7056847817066 747.0486094277552Q2182.4275319342123 744.1206816423766 2173.5029828191637 742.0936547140375Q2164.606586855898 740.0666277856984 2155.6820377408494 737.2231594556673Q2146.7574886258017 734.3796911256362 2140.4793357783074 727.6792410014044Q2134.201182930813 721.006944028955 2134.201182930813 710.6747373247824L2134.201182930813 710.6747373247824Q2134.201182930813 696.4855488264092 2144.4207770278554 687.5609997113609Q2154.6685242766807 678.6364505963126 2172.2923972925173 678.6364505963126Q2189.944423460136 678.6364505963126 2205.147125422679 684.3233872563749L2205.147125422679 684.3233872563749L2205.147125422679 701.1308188705194L2203.711314681772 701.1308188705194Q2190.1414955226137 695.4720353622396 2177.1628925508876 695.4720353622396ZM2327.7822545871904 732.3526641972971L2327.7822545871904 732.3526641972971L2327.7822545871904 738.827889107269L2249.5164926318776 738.827889107269Q2251.1493754352623 753.0170776056424 2260.07392455031 760.9281132565211Q2268.9984736653587 768.8391489073998 2287.12910341328 768.8391489073998Q2305.2597331612014 768.8391489073998 2320.687660338004 758.7040142657046L2320.687660338004 758.7040142657046L2321.701173802174 758.7040142657046L2321.701173802174 776.5531124958012Q2304.6685169737693 786.0688777982817 2281.6673919674777 786.0688777982817Q2258.638113809404 786.0688777982817 2244.7586099806376 771.9923019070384Q2230.8791061518714 757.8875728640126 2230.8791061518714 733.8729343935514Q2230.8791061518714 709.8582959230903 2243.2383397843832 694.2332966838102Q2255.597573416895 678.6364505963126 2279.3306803695314 678.6364505963126Q2303.0356341703846 678.6364505963126 2315.3948678028964 694.2332966838102Q2327.7822545871904 709.8582959230903 2327.7822545871904 732.3526641972971ZM2249.5164926318776 723.8504123589861L2249.5164926318776 723.8504123589861L2309.31378701788 723.8504123589861Q2308.52549876797 709.2389265838756 2299.488337045792 701.7501882097341Q2290.479328475396 694.2332966838102 2279.3306803695314 694.2332966838102Q2268.1820322636668 694.2332966838102 2259.257483148618 701.7501882097341Q2250.3329340335704 709.2389265838756 2249.5164926318776 723.8504123589861ZM2390.0007200264863 695.4720353622396Q2377.02211705476 695.4720353622396 2370.8565768143953 699.4134766117877Q2364.6628834222483 703.3549178613358 2364.6628834222483 709.3515391910056Q2364.6628834222483 715.3200073688927 2370.9410362697436 718.5576198238787Q2377.219189117238 721.8233854306471 2386.256350839416 723.7377997518562Q2395.265359409811 725.6522140730652 2404.1899085248597 728.4956824030965Q2413.1144576399083 731.3391507331277 2419.3926104874026 738.2366729198369Q2425.670763334897 745.1341951065461 2425.670763334897 757.0711314623204Q2425.670763334897 769.0362209698773 2415.4511692378546 777.5666259599707Q2405.2034219890293 786.0688777982817 2385.0457653127687 786.0688777982817Q2364.859955484726 786.0688777982817 2348.249595933059 776.947256620756L2348.249595933059 776.947256620756L2348.249595933059 759.3233836049193L2349.2631093972286 759.3233836049193Q2365.676396886418 769.0362209698773 2385.3272968305937 769.0362209698773L2385.3272968305937 769.0362209698773Q2407.8498182565836 769.0362209698773 2407.8498182565836 754.6499604090266L2407.8498182565836 754.6499604090266Q2407.8498182565836 749.9765372131338 2401.5435122573062 747.0486094277552Q2395.265359409811 744.1206816423766 2386.3408102947633 742.0936547140375Q2377.4444143314977 740.0666277856984 2368.519865216449 737.2231594556673Q2359.5953161014013 734.3796911256362 2353.317163253906 727.6792410014044Q2347.0390104064118 721.006944028955 2347.0390104064118 710.6747373247824L2347.0390104064118 710.6747373247824Q2347.0390104064118 696.4855488264092 2357.258604503454 687.5609997113609Q2367.5063517522794 678.6364505963126 2385.130224768116 678.6364505963126Q2402.7822509357356 678.6364505963126 2417.9849528982777 684.3233872563749L2417.9849528982777 684.3233872563749L2417.9849528982777 701.1308188705194L2416.5491421573715 701.1308188705194Q2402.9793229982133 695.4720353622396 2390.0007200264863 695.4720353622396ZM2524.600938698555 765.6015364524138L2599.178637770362 765.6015364524138L2599.178637770362 784.0418508699427L2506.1606242810267 784.0418508699427L2506.1606242810267 642.5441100111647L2524.600938698555 642.5441100111647L2524.600938698555 765.6015364524138ZM2638.5085908104966 784.0418508699427L2620.068276392967 784.0418508699427L2620.068276392967 680.6634775246516L2638.5085908104966 680.6634775246516L2638.5085908104966 784.0418508699427ZM2619.448907053753 638.9123534312239L2639.3250322121885 638.9123534312239L2639.3250322121885 658.760325437877L2619.448907053753 658.760325437877L2619.448907053753 638.9123534312239ZM2709.4545333023625 762.138698783168L2741.4928200308323 680.6634775246516L2761.5660172517455 680.6634775246516L2718.1820103549335 784.0418508699427L2699.9387679998827 784.0418508699427L2656.5547611030697 680.6634775246516L2676.627958323983 680.6634775246516L2708.6380919006706 762.138698783168L2709.4545333023625 762.138698783168ZM2869.589660641147 732.3526641972971L2869.589660641147 732.3526641972971L2869.589660641147 738.827889107269L2791.3520518376163 738.827889107269Q2792.984934641 753.0170776056424 2801.8813306042657 760.9281132565211Q2810.8058797193144 768.8391489073998 2828.964662619019 768.8391489073998Q2847.09529236694 768.8391489073998 2862.49506639196 758.7040142657046L2862.49506639196 758.7040142657046L2863.5085798561295 758.7040142657046L2863.5085798561295 776.5531124958012Q2846.475923027725 786.0688777982817 2823.4747980214333 786.0688777982817Q2800.4736730151417 786.0688777982817 2786.5941691863763 771.9923019070384Q2772.71466535761 757.8875728640126 2772.71466535761 733.8729343935514Q2772.71466535761 709.8582959230903 2785.073898990122 694.2332966838102Q2797.433132622634 678.6364505963126 2821.138086423487 678.6364505963126Q2844.8711933761233 678.6364505963126 2857.230427008635 694.2332966838102Q2869.589660641147 709.8582959230903 2869.589660641147 732.3526641972971ZM2791.3520518376163 723.8504123589861L2791.3520518376163 723.8504123589861L2851.1493462236176 723.8504123589861Q2850.3329048219257 709.2389265838756 2841.3238962515297 701.7501882097341Q2832.2867345293516 694.2332966838102 2821.138086423487 694.2332966838102Q2809.9894383176224 694.2332966838102 2801.093042354357 701.7501882097341Q2792.168493239308 709.2389265838756 2791.3520518376163 723.8504123589861ZM2934.876819624733 642.5441100111647L3051.00857072749 642.5441100111647L3051.00857072749 659.7738389020466L3002.162852384876 659.7738389020466L3002.162852384876 784.0418508699427L2983.7225379673473 784.0418508699427L2983.7225379673473 659.7738389020466L2934.876819624733 659.7738389020466L2934.876819624733 642.5441100111647ZM3127.838521941896 678.6364505963126L3127.838521941896 678.6364505963126L3129.471404745281 678.6364505963126L3129.471404745281 696.2603236121493L3127.838521941896 696.2603236121493Q3115.8734324343395 696.2603236121493 3105.541225730167 700.933746808042Q3095.209019025995 705.6071700039348 3089.325010303455 713.9123497797683L3089.325010303455 713.9123497797683L3089.325010303455 784.0418508699427L3070.8846958859267 784.0418508699427L3070.8846958859267 680.6634775246516L3087.1009113126383 680.6634775246516L3089.325010303455 693.642080496378L3089.325010303455 696.6826208888865L3089.7191544284096 696.6826208888865Q3104.3306402035205 678.6364505963126 3127.838521941896 678.6364505963126ZM3151.1493316177957 702.960773736381L3151.1493316177957 686.3504141847139Q3168.7732046336323 678.6364505963126 3188.959014461675 678.6364505963126Q3209.1166711379356 678.6364505963126 3219.8711751188457 690.4044680413921Q3230.597525947973 702.144332334689 3230.597525947973 718.5576198238787L3230.597525947973 718.5576198238787L3230.597525947973 784.0418508699427L3214.3813105212603 784.0418508699427L3212.1572115304443 771.0632478982162L3211.565995343012 771.0632478982162Q3196.9545095679014 786.0688777982817 3174.06599716874 786.0688777982817L3174.06599716874 786.0688777982817Q3160.270952795321 786.0688777982817 3150.642574885711 777.7636980224481Q3141.0141969761007 769.4585182466145 3141.0141969761007 755.0441045339813Q3141.0141969761007 740.6578439731308 3152.866673876528 731.7332948580824Q3164.719150776954 722.8368988948166 3187.6358163278983 722.8368988948166L3187.6358163278983 722.8368988948166L3212.1572115304443 722.8368988948166L3212.1572115304443 721.2040160914324Q3212.1572115304443 707.8312689947512 3205.569374013342 701.9472602722116Q3198.9815364962406 696.0632515496718 3182.765321069529 696.0632515496718Q3166.5491056428154 696.0632515496718 3152.359917144442 702.960773736381L3152.359917144442 702.960773736381L3151.1493316177957 702.960773736381ZM3212.1572115304443 754.6499604090266L3212.1572115304443 754.6499604090266L3212.1572115304443 737.6173035806222L3190.056987381192 737.6173035806222Q3159.454511393629 737.6173035806222 3159.454511393629 753.749059551987Q3159.454511393629 769.8526623715694 3180.9353662036665 769.8526623715694L3180.9353662036665 769.8526623715694Q3189.859915318715 769.8526623715694 3198.1650950945486 765.4889238452839Q3206.4984280221643 761.1251853189984 3212.1572115304443 754.6499604090266ZM3344.3362591492187 706.0013141288896L3343.5198177475268 706.0013141288896Q3328.5141878474615 695.8661794871945 3310.974774286972 695.8661794871945Q3293.435360726483 695.8661794871945 3283.5254512990477 705.8887015217597Q3273.5873887198304 715.9393767081074 3273.5873887198304 732.3526641972971Q3273.5873887198304 748.7659516864868 3283.5254512990477 758.8166268728346Q3293.435360726483 768.8391489073998 3310.974774286972 768.8391489073998Q3328.5141878474615 768.8391489073998 3343.5198177475268 758.7040142657046L3343.5198177475268 758.7040142657046L3344.3362591492187 758.7040142657046L3344.3362591492187 776.130815219064Q3327.500674383292 786.0688777982817 3309.257432028241 786.0688777982817L3309.257432028241 786.0688777982817Q3286.763063754034 786.0688777982817 3270.940992452276 771.4855451749536Q3255.147074302301 756.8740593998431 3255.147074302301 732.3526641972971Q3255.147074302301 707.8312689947512 3270.940992452276 693.2197832196407Q3286.763063754034 678.6364505963126 3309.257432028241 678.6364505963126L3309.257432028241 678.6364505963126Q3327.500674383292 678.6364505963126 3344.3362591492187 688.5745131755303L3344.3362591492187 688.5745131755303L3344.3362591492187 706.0013141288896ZM3459.060352662852 680.6634775246516L3417.084003355164 722.2175295556019L3463.7056227069625 784.0418508699427L3441.014182370278 784.0418508699427L3404.5276976601754 735.1961325273282L3403.908328320961 735.1961325273282L3388.930851572678 750.2017624273936L3388.930851572678 784.0418508699427L3370.4623840033664 784.0418508699427L3370.4623840033664 636.0688851011927L3388.930851572678 636.0688851011927L3388.930851572678 726.6657275372348L3389.52206776011 726.6657275372348L3434.313732246046 680.6634775246516L3459.060352662852 680.6634775246516ZM3571.954491310624 732.3526641972971L3571.954491310624 732.3526641972971L3571.954491310624 738.827889107269L3493.716882507093 738.827889107269Q3495.349765310478 753.0170776056424 3504.2461612737434 760.9281132565211Q3513.170710388791 768.8391489073998 3531.3294932884955 768.8391489073998Q3549.460123036417 768.8391489073998 3564.8598970614376 758.7040142657046L3564.8598970614376 758.7040142657046L3565.873410525607 758.7040142657046L3565.873410525607 776.5531124958012Q3548.8407536972027 786.0688777982817 3525.839628690911 786.0688777982817Q3502.8385036846184 786.0688777982817 3488.958999855853 771.9923019070384Q3475.079496027087 757.8875728640126 3475.079496027087 733.8729343935514Q3475.079496027087 709.8582959230903 3487.4387296595987 694.2332966838102Q3499.7979632921097 678.6364505963126 3523.502917092964 678.6364505963126Q3547.236024045601 678.6364505963126 3559.595257678112 694.2332966838102Q3571.954491310624 709.8582959230903 3571.954491310624 732.3526641972971ZM3493.716882507093 723.8504123589861L3493.716882507093 723.8504123589861L3553.5141768930953 723.8504123589861Q3552.6977354914034 709.2389265838756 3543.6887269210065 701.7501882097341Q3534.6515651988284 694.2332966838102 3523.502917092964 694.2332966838102Q3512.354268987099 694.2332966838102 3503.4578730238336 701.7501882097341Q3494.533323908785 709.2389265838756 3493.716882507093 723.8504123589861ZM3653.6549377834 678.6364505963126L3653.6549377834 678.6364505963126L3655.2596674350016 678.6364505963126L3655.2596674350016 696.2603236121493L3653.6549377834 696.2603236121493Q3641.6898482758434 696.2603236121493 3631.3576415716707 700.933746808042Q3621.025434867498 705.6071700039348 3615.141426144958 713.9123497797683L3615.141426144958 713.9123497797683L3615.141426144958 784.0418508699427L3596.7011117274296 784.0418508699427L3596.7011117274296 680.6634775246516L3612.917327154142 680.6634775246516L3615.141426144958 693.642080496378L3615.141426144958 696.6826208888865L3615.5355702699126 696.6826208888865Q3630.1470560450234 678.6364505963126 3653.6549377834 678.6364505963126Z " fill="#f7c5cc" transform="matrix(0.23938106902504813,0,0,0.23938106902504813,0,129.78356752284162)"/></g></svg>